<?xml version="1.0" encoding="UTF-8"?>
<svg id="b" xmlns="http://www.w3.org/2000/svg" version="1.1" viewBox="0 10 397 144">
  <!-- Generator: Adobe Illustrator 30.7.0, SVG Export Plug-In . SVG Version: 2.1.4 Build 114)  -->
  <defs>
    <style>
      .st0 {
        fill: #fff;
      }

      .st1 {
        fill: #fcc50d;
      }

      .st2 {
        fill: #000;
      }
    </style>
  </defs>
  <rect class="st2" y="-1" width="397" height="172"/>
  <g>
    <path class="st0" d="M164.3,54.2h-11.4c-2.1,0-3.6-1.5-3.6-3.6s1.5-3.5,3.6-3.5h30.2c2.1,0,3.6,1.4,3.6,3.5s-1.5,3.6-3.6,3.6h-11.6v41.6c0,2.1-1.5,3.6-3.6,3.6s-3.6-1.5-3.6-3.6v-41.6h0Z"/>
    <path class="st0" d="M213.5,75.5h-21.1v20.3c0,2.1-1.5,3.6-3.6,3.6s-3.6-1.5-3.6-3.6v-45.1c0-2.1,1.5-3.6,3.6-3.6s3.6,1.5,3.6,3.6v17.8h21.1v-17.8c0-2.1,1.5-3.6,3.6-3.6s3.6,1.5,3.6,3.6v45.1c0,2.1-1.5,3.6-3.6,3.6s-3.6-1.5-3.6-3.6v-20.3h0Z"/>
  </g>
  <path class="st0" d="M287.7,99.4c-1.3,0-3-.5-4-1.5-2.3-2.3-4.8-6.8-7.8-12.6-1.8-3.5-3.6-7.6-5.4-11.6s-3.3-7.8-5.1-11.7c-.5-1.1-1-2.1-1.3-2.6v36.3c0,2.1-1.5,3.6-3.6,3.6s-3.6-1.5-3.6-3.6v-45c0-2.1,1.5-3.6,3.6-3.6h1c6.1,0,9.9,10.7,12.7,16.8,1.3,2.8,2.6,6,3.9,8.8,2.3,5.1,3.6,8.4,5.2,11.4.5,1,1.3,2.5,1.6,3v-36.3c0-2.1,1.5-3.6,3.6-3.6s3.6,1.5,3.6,3.6v45c0,2.1-1.5,3.6-3.6,3.6h-.8Z"/>
  <path class="st0" d="M285.2,50.7c0-2.1,1.6-3.6,3.6-3.6s3.6,1.5,3.6,3.6v17.2l19.5-19.6c.7-.7,1.7-1.2,2.8-1.2,2.1,0,3.5,1.7,3.5,3.6s-.5,1.9-1,2.6l-18.4,18.4c4.5,3.4,12.9,10.5,21.5,22.2.4.6.6,1.1.6,1.9,0,2.1-1.5,3.6-3.6,3.6s-2.3-.6-3-1.5c-7.4-10-14.8-16.8-19.2-20.1l-2.5-1.9v19.9c0,2.1-1.5,3.6-3.6,3.6s-3.6-1.5-3.6-3.6v-45.1h-.2Z"/>
  <path class="st1" d="M260,26.9c-7.4,29.8-11.7,49.6-16.2,81.1,0,.3-.2.6-.5.8-.2.1-.5.2-.7.2h-.2c-3.4-.6-6.7-.4-10.7-.1-.7,0-1.3-.4-1.3-1.1-2.2-24.5-3.7-40.6-8.1-61.4-.1-.5.1-1,.5-1.3,8.1-5.3,16.3-9.6,27.6-15.5,2.5-1.3,5.1-2.7,8-4.2.4-.2,1-.2,1.3.1.4.3.5.8.4,1.3h-.1Z"/>
  <path class="st1" d="M242.2,130.3c-1.3,1.3-3.2,2.3-5.4,2.3s-2.1-.2-3.1-.7c-2.1-1-3.7-3-4.2-5.4-.6-2.4,0-4.8,1.7-6.8,1.7-2.1,4.3-3,7.2-2.5s5.5,2.4,6.2,4.4c.9,2.7-.1,6.4-2.4,8.7Z"/>
  <g>
    <path class="st0" d="M105.7,66.3c.4-.1.8-.1,1.1,0,.4.2.6.5.7.9s0,.8,0,1.1c-5.6,11.5-10.6,17.3-15,17.3s-.6,0-.9,0c-3.5-.7-5.7-5.4-6.5-14.1-2.6,3.4-4.8,6.3-6.8,8.5-1.8,1.9-3.3,2.5-4.5,2s-1.8-1.8-1.8-4.1.4-4.1,1.2-6.7c.8-2.6,2.1-5.1,3.7-7.6,1.6-2.4,3.4-4,5.2-4.6,2.8-1,5.3,0,7.7,2.7.3.3.4.7.3,1.1,0,.4-.2.8-.5,1-.3.3-.7.4-1.1.4s-.8-.2-1-.5c-1.8-2.2-3.7-2.6-5.6-1.2-2.1,1.5-3.9,4.2-5.4,8.2-1.4,3.9-2,6.8-1.7,8.4.3-.3.7-.6,1.1-1,2.1-2.2,4.7-5.5,7.7-9.6.7-.9,1.2-1.6,1.4-2,.4-.5,1-.7,1.7-.5s1,.6,1.1,1.4c0,2.6.3,4.8.6,6.8.3,2,.6,3.5.9,4.5s.7,1.9,1.1,2.6c.4.7.7,1.1,1,1.3.2.2.5.3.7.3.7.2,1.7-.2,2.8-1.1s2.6-2.5,4.3-5,3.5-5.6,5.4-9.4c.2-.4.5-.7.9-.8h0l.2-.3Z"/>
    <path class="st0" d="M134.5,66.2c.4-.1.8,0,1.2.2s.6.5.7.9c.1.4,0,.8-.2,1.1-1.8,3.1-3.3,5.6-4.6,7.4-1.3,1.8-2.6,3.3-4,4.3-1.4,1.1-2.7,1.5-4,1.3-2.6-.3-4.7-3.1-6.2-8.5-1.1-3.6-2-5.4-2.8-5.4s-.4,0-.7.2c-.3.2-.7.6-1.4,1.4-.6.8-1.3,1.8-2.1,3.1-.8,1.3-1.8,3.2-3,5.8s-2.6,5.6-4,9.1c-.3.6-.7.9-1.4.9s-.2,0-.3,0c-.9-.2-1.3-.8-1.2-1.6.5-4.3,2.5-12.2,5.9-23.9.4-1.2.6-2.1.8-2.7.2-.4.4-.7.8-.9s.7-.2,1.1-.1c.4.1.7.3.9.7.2.4.2.8,0,1.2,0,.4-.4,1.3-.8,2.7-1.2,4-2,7.1-2.7,9.4,1.7-3.1,3.1-5.3,4.4-6.5,1.2-1.2,2.4-1.8,3.6-1.7,1.4,0,2.4.8,3.2,2.1.8,1.4,1.6,3.2,2.3,5.6,1.2,4,2.4,6.1,3.7,6.3.6.1,1.4-.2,2.3-1.1.9-.8,1.9-2,2.9-3.5,1-1.5,1.8-2.8,2.4-3.6s1.2-2,1.9-3.4.5-.6.9-.7h.4Z"/>
    <path class="st0" d="M169.4,65.9c.4,0,.7.3,1,.6.2.3.3.7.2,1.1-.1.4-.3.7-.6.9-9.2,6-16.8,12-22.7,17.9-3.1,18.4-6.4,33.4-10.1,44.9-4.3,13.5-8.5,20.9-12.6,22-.4.1-.8.2-1.2.2-1.2,0-2.2-.5-3.1-1.6-1.5-1.9-2.3-5-2.4-9.3s.6-9.4,2-15.4c1.5-5.9,3.6-11.6,6.5-17.1,5-9.4,11-17.9,18.2-25.2.8-4.9,1.6-10.1,2.4-15.4-1.6,2.5-3.1,4.5-4.5,6.2-2.3,2.8-4.5,3.6-6.6,2.4-1.7-1-2.6-3.2-2.7-6.5-.1-3.3.6-6.9,2.3-10.9.2-.4.4-.6.8-.8.4-.2.8-.2,1.1,0s.6.4.8.8c.2.4.2.8,0,1.2-1.4,3.8-2.1,6.9-2.1,9.3s.5,3.8,1.3,4.3c.6.4,1.5-.2,2.7-1.6,2.6-3.1,5.3-7.1,8.1-11.9.4-.7,1-.9,1.8-.7.8.3,1.1.8,1,1.6-.9,6.5-1.8,12.7-2.7,18.6,5.4-5,12.1-10.2,20.2-15.4.3-.2.7-.3,1.1-.2h-.2ZM134.2,130.6c3.3-10.4,6.4-23.8,9.3-40-5.6,6.3-10.5,13.3-14.6,21.1-2.2,4.3-4,8.7-5.4,13.1-1.3,4.5-2.2,8.4-2.5,11.7s-.3,6.2,0,8.6.8,4,1.5,4.9c.4.4.7.6,1.1.5.3,0,.6-.2.9-.4.3-.2.8-.7,1.6-1.6s1.5-2,2.2-3.3,1.6-3.3,2.7-5.8c1.1-2.6,2.2-5.5,3.2-8.9h0Z"/>
  </g>
</svg>