<?xml version="1.0" encoding="UTF-8"?>
<svg id="Layer_2" data-name="Layer 2" xmlns="http://www.w3.org/2000/svg" viewBox="0 0 239.63 21.9">
  <defs>
    <style>
      .cls-1 {
        fill: #f0ba18;
      }

      .cls-2 {
        fill: #eab71c;
      }
    </style>
  </defs>
  <g id="Layer_1-2" data-name="Layer 1">
    <g>
      <path class="cls-2" d="M200.4,4.56c-35.88,2.12-71.3,4.55-106.43,11.19.55,1.32,2.48,1.73,5.79,1.24,27.34-1.94,54.22-3.27,81.6-1.21,2.92.22,5.84.51,8.7,1.91-38.3-1.13-76.34.68-115.02,3.97-3.08.26-6.03.86-7.86-1.95,16.35-5,32.13-7.17,48.67-9.73,23.42-3.63,46.05-5.17,70.08-6.5l-54.47-.29c-1.49-1.62-.57-2.2,1.44-2.24l54.82.1c5.94-.81,10.17.36,12.68,3.51h0Z"/>
      <path class="cls-1" d="M200.4,4.56c-1.93,1.23-4.38-2.41-6.21-2.42l-61.12-.32c-.85,0-1.26.89-1.62,1.38C87.06,2.96,44.69,10.74,0,15.58,44.52,3.89,89.71,1.86,134.97,0h52.86l36.96,2.13,14.84,1.52-39.23.91h0Z"/>
    </g>
  </g>
</svg>